<svg xmlns="http://www.w3.org/2000/svg" viewBox="0 0 100 100" fill="#000">
  <!-- Hourglass/pinched bar at top -->
  <path d="M45 18c0-2 1.5-4 5-4s5 2 5 4v2c0 2-1 3-2 4.5-1 1.5-1.5 2.5-1.5 4s.5 2.5 1.5 4c1 1.5 2 2.5 2 4.5v2c0 2-1.5 4-5 4s-5-2-5-4v-2c0-2 1-3 2-4.5 1-1.5 1.5-2.5 1.5-4s-.5-2.5-1.5-4c-1-1.5-2-2.5-2-4.5v-2z"/>
  <!-- Thick circle with tilted elliptical cutout -->
  <circle cx="50" cy="64" r="25"/>
  <ellipse cx="52" cy="66" rx="10.5" ry="13" fill="#fff" transform="rotate(-20 52 66)"/>
</svg>
